External Loads File
version=1
nRows=62
nColumns=13
Range=5.000000e-03-10 seconds
endheader
time 	forceRightX 	forceRightY 	forceRightZ 	pointRightX 	pointRightY 	pointRightZ 	forceLeftX 	forceLeftY 	forceLeftZ 	pointLeftX 	pointLeftY 	pointLeftZ 		
7.505000 -9.385244 -49.045144 -0.000000 0.182849 0.442323 -0.147691 42.511744 876.310688 -0.000000 0.388107 0.205058 -0.381385
7.510000 -15.340345 -51.819903 -0.000000 0.190430 0.450844 -0.148066 1.550509 884.697929 -0.000000 0.381345 0.197548 -0.381170
7.515000 -27.830228 -51.948618 -0.000000 0.198373 0.457910 -0.148458 70.210637 887.678543 -0.000000 0.374016 0.190398 -0.380989
7.520000 -33.815477 -54.540060 -0.000000 0.206867 0.464921 -0.148776 31.113007 894.229520 -0.000000 0.366258 0.183736 -0.380942
7.525000 -45.649652 -52.140071 -0.000000 0.215465 0.471331 -0.149282 96.351308 892.892983 -0.000000 0.358073 0.177605 -0.380885
7.530000 -50.706444 -53.717351 -0.000000 0.225224 0.477235 -0.149116 56.853795 899.100718 -0.000000 0.349516 0.172000 -0.380834
7.535000 -62.275008 -46.065398 -0.000000 0.233800 0.482621 -0.150098 143.945178 892.144935 -0.000000 0.340645 0.166921 -0.380863
7.540000 -66.240220 -44.352811 -0.000000 0.243761 0.487358 -0.150409 106.325735 900.321926 -0.000000 0.331445 0.162403 -0.380888
7.545000 -74.094734 -31.401100 -0.000000 0.253396 0.491296 -0.150804 177.838784 891.634541 -0.000000 0.322017 0.158418 -0.380892
7.550000 -76.511727 -23.368106 -0.000000 0.263299 0.494611 -0.151184 142.448934 899.303630 -0.000000 0.312416 0.155055 -0.380969
7.555000 -79.336986 -1.553959 -0.000000 0.273341 0.497295 -0.151502 217.368956 882.576332 -0.000000 0.302607 0.152351 -0.381073
7.560000 -79.221270 15.085654 -0.000000 0.283387 0.499301 -0.151722 182.425725 883.920624 -0.000000 0.292683 0.150346 -0.381064
7.565000 -73.760832 45.552162 -0.000000 0.293393 0.500834 -0.152038 253.758748 852.274796 -0.000000 0.282660 0.149085 -0.381060
7.570000 -70.199678 70.570223 -0.000000 0.303772 0.501630 -0.151898 219.343774 838.992168 -0.000000 0.272554 0.148659 -0.381087
7.575000 -53.805945 106.365290 -0.000000 0.313111 0.501839 -0.151840 285.611039 784.623705 -0.000000 0.262461 0.149039 -0.381045
7.580000 -47.152072 136.207867 -0.000000 0.321942 0.501456 -0.151704 248.653358 751.897876 -0.000000 0.252407 0.150289 -0.380953
7.585000 -20.464691 171.255472 -0.000000 0.330385 0.500141 -0.151854 299.175460 674.895161 -0.000000 0.242534 0.152425 -0.380747
7.590000 -13.258748 202.259586 -0.000000 0.338368 0.498389 -0.151788 257.890610 623.765211 -0.000000 0.232852 0.155409 -0.380371
7.595000 19.871609 233.037301 -0.000000 0.345866 0.496090 -0.151590 286.252672 531.857801 -0.000000 0.223465 0.159165 -0.379886
7.600000 24.188161 264.621913 -0.000000 0.352946 0.492916 -0.151285 241.754351 468.820725 -0.000000 0.214472 0.163591 -0.379382
7.605000 60.959899 292.059680 -0.000000 0.359361 0.489027 -0.150873 248.935520 372.096755 -0.000000 0.205854 0.168599 -0.378839
7.610000 58.641641 326.873697 -0.000000 0.366012 0.483773 -0.150315 201.736648 306.277361 -0.000000 0.197667 0.174154 -0.378271
7.615000 49.629154 363.789133 -0.000000 0.372500 0.478181 -0.149654 158.522688 238.821800 -0.000000 0.189895 0.180187 -0.377896
7.620000 84.807802 394.411766 -0.000000 0.378473 0.471848 -0.149318 141.373683 154.694155 -0.000000 0.182597 0.186688 -0.377677
7.625000 121.147045 423.312107 -0.000000 0.384140 0.464835 -0.148779 112.191987 80.937379 -0.000000 0.175723 0.193616 -0.377358
7.630000 99.706951 466.254952 -0.000000 0.389537 0.457097 -0.148462 71.796638 29.447360 -0.000000 0.169367 0.200965 -0.377088
7.635000 144.670060 490.815990 -0.000000 0.394797 0.448946 -0.148472 36.423104 -23.005613 -0.000000 0.162616 0.208620 -0.376003
7.640000 114.820351 531.604644 -0.000000 0.399842 0.440088 -0.148333 6.114678 -59.597311 -0.000000 0.157055 0.216605 -0.375880
7.645000 148.084177 552.978358 -0.000000 0.404888 0.430913 -0.148198 -27.135070 -87.380317 -0.000000 0.152019 0.224870 -0.375845
7.650000 107.519281 587.293381 -0.000000 0.409601 0.421182 -0.148154 -44.401241 -109.232683 -0.000000 0.147456 0.233449 -0.375778
7.655000 135.374199 602.635926 -0.000000 0.413819 0.411317 -0.148105 -69.034188 -117.569008 -0.000000 0.143294 0.242294 -0.375782
7.660000 84.121363 629.115019 -0.000000 0.417861 0.401127 -0.148002 -72.964606 -127.381283 -0.000000 0.139658 0.251447 -0.375815
7.665000 107.148276 640.124725 -0.000000 0.421504 0.390820 -0.147935 -86.337048 -122.803049 -0.000000 0.136402 0.260866 -0.375779
7.670000 50.147578 659.674380 -0.000000 0.424644 0.380158 -0.147755 -79.213104 -124.353325 -0.000000 0.133641 0.270587 -0.375813
7.675000 85.166488 667.892690 -0.000000 0.427271 0.369414 -0.147633 -84.345748 -111.801989 -0.000000 0.131363 0.280575 -0.375831
7.680000 26.328737 684.422556 -0.000000 0.429392 0.358439 -0.147270 -69.438654 -108.948777 -0.000000 0.129679 0.290792 -0.375872
7.685000 52.351898 694.948154 -0.000000 0.431198 0.347324 -0.147938 -64.655431 -96.289567 -0.000000 0.128462 0.301186 -0.375910
7.690000 -2.831250 709.495182 -0.000000 0.432297 0.336294 -0.147685 -46.070366 -90.289915 -0.000000 0.127924 0.311680 -0.375912
7.695000 29.376412 722.177003 -0.000000 0.432739 0.325249 -0.147582 -36.791168 -77.957465 -0.000000 0.127879 0.322239 -0.375964
7.700000 -21.673230 736.457140 -0.000000 0.432625 0.314263 -0.147802 -17.450434 -69.213586 -0.000000 0.128518 0.332836 -0.376061
7.705000 19.993355 751.293875 -0.000000 0.431658 0.303463 -0.146793 -6.264014 -57.733705 -0.000000 0.129642 0.343371 -0.376116
7.710000 -26.985460 766.768969 -0.000000 0.430400 0.292744 -0.146692 11.750569 -46.686136 -0.000000 0.131510 0.353826 -0.376229
7.715000 20.491487 783.784477 -0.000000 0.428824 0.281836 -0.147446 23.487358 -37.095988 -0.000000 0.133883 0.364216 -0.376298
7.720000 -25.813993 801.899617 -0.000000 0.426434 0.271264 -0.147339 38.582411 -25.215395 -0.000000 0.136993 0.374447 -0.376449
7.725000 27.126668 821.869597 -0.000000 0.423532 0.260796 -0.147019 48.859914 -19.021483 -0.000000 0.140632 0.384470 -0.376476
7.730000 -20.177467 843.811732 -0.000000 0.420143 0.250662 -0.146889 59.329973 -8.270233 -0.000000 0.144974 0.394300 -0.376680
7.735000 37.183752 866.334291 -0.000000 0.416110 0.240932 -0.146848 66.132842 -6.411763 -0.000000 0.149867 0.403857 -0.376757
7.740000 -9.400731 890.892234 -0.000000 0.411550 0.231328 -0.147005 70.846136 1.510214 -0.000000 0.155418 0.413106 -0.376831
7.745000 51.494801 913.410520 -0.000000 0.406524 0.222182 -0.146775 72.524390 -0.886248 -0.000000 0.161567 0.422007 -0.377022
7.750000 5.333555 938.312808 -0.000000 0.400910 0.213560 -0.146582 71.134527 3.264673 -0.000000 0.168227 0.430522 -0.377094
7.755000 74.791159 957.874094 -0.000000 0.394695 0.205342 -0.146395 66.895745 -3.084250 -0.000000 0.175467 0.438634 -0.377203
7.760000 28.900421 981.221653 -0.000000 0.388073 0.197446 -0.146293 60.071819 -3.221550 -0.000000 0.183308 0.446294 -0.377299
7.765000 104.316381 994.822973 -0.000000 0.380922 0.190222 -0.146017 50.030236 -12.382396 -0.000000 0.191591 0.453468 -0.377432
7.770000 57.989024 1014.443641 -0.000000 0.373330 0.183364 -0.146035 39.097513 -17.013715 -0.000000 0.200272 0.460164 -0.377460
7.775000 10.980358 1028.599023 -0.000000 0.365383 0.176998 -0.146021 27.128859 -24.582625 -0.000000 0.208583 0.466343 -0.376823
7.780000 91.748012 1033.594653 -0.000000 0.357032 0.171383 -0.146034 10.463852 -36.513778 -0.000000 0.217771 0.471999 -0.376634
7.785000 191.919244 1025.126020 -0.000000 0.348410 0.166332 -0.146070 -9.471206 -46.804208 -0.000000 0.227758 0.477153 -0.376921
7.790000 146.407002 1034.048711 -0.000000 0.339529 0.161749 -0.145896 -23.458722 -57.822527 -0.000000 0.238468 0.481768 -0.377657
7.795000 219.785085 1018.305029 -0.000000 0.330394 0.157861 -0.145723 -43.874832 -65.260355 -0.000000 0.248346 0.485812 -0.377375
7.800000 175.110500 1019.899940 -0.000000 0.321173 0.154543 -0.145550 -55.921670 -76.030459 -0.000000 0.258745 0.489292 -0.376980
7.805000 261.669655 989.142316 -0.000000 0.311786 0.151838 -0.145372 -76.281779 -76.679771 -0.000000 0.268984 0.492160 -0.376922
7.810000 217.367148 982.510190 -0.000000 0.302269 0.149782 -0.145424 -84.495234 -83.586265 -0.000000 0.279533 0.494392 -0.376611
